<svg xmlns="http://www.w3.org/2000/svg" xmlns:xlink="http://www.w3.org/1999/xlink" width="500" zoomAndPan="magnify" viewBox="0 0 375 374.999991" height="500" preserveAspectRatio="xMidYMid meet" version="1.0"><defs><g/></defs><path fill="rgb(100%, 100%, 100%)" d="M 247.070312 137.910156 L 137.910156 137.910156 L 137.910156 250.410156 L 250.410156 250.410156 L 250.410156 137.910156 L 247.070312 137.910156 M 247.070312 247.070312 L 141.285156 247.070312 L 141.285156 141.285156 L 247.070312 141.285156 L 247.070312 247.070312 " fill-opacity="1" fill-rule="nonzero"/><g fill="rgb(100%, 100%, 100%)" fill-opacity="1"><g transform="translate(151.423675, 186.416936)"><g><path d="M 28.085938 -11.773438 C 26.65625 -8.714844 23.191406 -6.625 19.625 -6.625 C 14.015625 -6.625 9.53125 -11.417969 9.53125 -17.328125 C 9.53125 -23.191406 14.015625 -28.035156 19.625 -28.035156 C 23.140625 -28.035156 26.605469 -26.097656 28.035156 -22.988281 L 36.546875 -22.988281 C 34.199219 -30.070312 27.523438 -35.167969 19.625 -35.167969 C 9.785156 -35.167969 1.785156 -27.167969 1.785156 -17.328125 C 1.785156 -7.492188 9.785156 0.507812 19.625 0.507812 C 27.523438 0.507812 34.25 -4.636719 36.597656 -11.773438 Z M 28.085938 -11.773438 "/></g></g></g><g fill="rgb(100%, 100%, 100%)" fill-opacity="1"><g transform="translate(189.29153, 186.416936)"><g/></g></g><g fill="rgb(100%, 100%, 100%)" fill-opacity="1"><g transform="translate(202.033074, 186.416936)"><g><path d="M 23.292969 -34.660156 L 23.292969 -14.628906 C 23.292969 -9.835938 21.867188 -7.136719 16.617188 -7.136719 C 11.417969 -7.136719 9.9375 -9.835938 9.9375 -14.628906 L 9.9375 -34.660156 L 2.292969 -34.660156 L 2.292969 -13.507812 C 2.292969 -4.28125 7.59375 0.507812 16.617188 0.507812 C 25.636719 0.507812 30.9375 -4.28125 30.9375 -13.507812 L 30.9375 -34.660156 Z M 23.292969 -34.660156 "/></g></g></g><g fill="rgb(100%, 100%, 100%)" fill-opacity="1"><g transform="translate(160.550521, 237.298309)"><g><path d="M 3.058594 0 L 23.140625 0 L 23.140625 -6.933594 L 10.703125 -6.933594 L 10.703125 -34.660156 L 3.058594 -34.660156 Z M 3.058594 0 "/></g></g></g><g fill="rgb(100%, 100%, 100%)" fill-opacity="1"><g transform="translate(185.472974, 237.298309)"><g/></g></g><g fill="rgb(100%, 100%, 100%)" fill-opacity="1"><g transform="translate(198.214518, 237.298309)"><g><path d="M 17.789062 -27.726562 L 27.675781 -27.726562 L 27.675781 -34.660156 L 0.253906 -34.660156 L 0.253906 -27.726562 L 10.144531 -27.726562 L 10.144531 0 L 17.789062 0 Z M 17.789062 -27.726562 "/></g></g></g></svg>